<svg width="18" height="18" fill="none" xmlns="http://www.w3.org/2000/svg"><g fill="currentColor"><path class="browser_minus" d="M9 0a9 9 0 10.001 18.001A9 9 0 009 0zm3.857 9.482a.16.16 0 01-.16.16H5.303a.161.161 0 01-.161-.16v-.964a.16.16 0 01.16-.16h7.393a.16.16 0 01.161.16v.964z"/><path class="browser_plus" fill-rule="evenodd" clip-rule="evenodd" d="M18 9A9 9 0 110 9a9 9 0 0118 0zM9.562 4.5a.563.563 0 10-1.124 0v3.938H4.5a.563.563 0 100 1.124h3.938V13.5a.562.562 0 101.124 0V9.562H13.5a.562.562 0 100-1.124H9.562V4.5z"/></g></svg>