<svg width="22" height="20" fill="none" xmlns="http://www.w3.org/2000/svg"><g fill="currentColor"><path d="M10.45 5.152H9.332a.287.287 0 00-.289.287v6.343c0 .092.044.176.119.23L13 14.79a.29.29 0 00.403-.062l.662-.897v-.003a.284.284 0 00-.064-.399l-3.267-2.343V5.44a.285.285 0 00-.286-.287z"/><path d="M18.892 14.14h-1.49a.425.425 0 00-.358.197 8.22 8.22 0 01-6.956 3.811 8.206 8.206 0 01-5.808-2.386 8.11 8.11 0 01-1.761-2.591 8.03 8.03 0 01-.645-3.172 8.04 8.04 0 01.645-3.172 8.11 8.11 0 011.76-2.59 8.216 8.216 0 015.808-2.386 8.206 8.206 0 015.81 2.385c.438.435.82.911 1.147 1.425a.425.425 0 00.358.197h1.49a.234.234 0 00.212-.34A10.09 10.09 0 0010.209 0C4.64-.07.01 4.456 0 9.979-.01 15.51 4.51 20 10.086 20c3.854 0 7.319-2.164 9.018-5.52a.235.235 0 00-.212-.34z"/><path d="M15.488 6.84v6.548c0 .112.093.204.206.204h1.238a.206.206 0 00.206-.204V6.84a.206.206 0 00-.206-.205h-1.238a.206.206 0 00-.206.205zm2.45 2.03v4.518c0 .112.093.204.207.204h1.237a.206.206 0 00.206-.204V8.87a.206.206 0 00-.206-.204h-1.238a.206.206 0 00-.206.204zm2.412 1.397v3.12c0 .113.093.205.206.205h1.238a.206.206 0 00.206-.204v-3.12a.206.206 0 00-.206-.205h-1.238a.206.206 0 00-.206.204z"/></g></svg>