<svg width="24" height="24" fill="none" xmlns="http://www.w3.org/2000/svg"><g fill="currentColor"><g class="swg-visible"><path d="M18.152 7.415l-.86.725a5.625 5.625 0 01-.163 7.442l.826.788a6.75 6.75 0 00.197-8.933v-.022z"/><path d="M15.014 9.62a3.375 3.375 0 01-.101 4.466l.826.765a4.5 4.5 0 00.13-5.957l-.855.726z"/></g><path d="M12.994 19.74a.563.563 0 01-.399-.169l-4.283-4.328h-3.75A.562.562 0 014 14.68V9.059a.562.562 0 01.562-.562h3.75l4.283-4.328a.562.562 0 01.793 0 .562.562 0 01.168.393v14.616a.562.562 0 01-.562.562z"/></g></svg>