<svg width="26" height="26" fill="none" xmlns="http://www.w3.org/2000/svg"><g fill="currentColor"><path d="M15.167 17.867c0 2.096 1.704 3.8 3.799 3.8 2.095 0 3.8-1.704 3.8-3.8 0-.184-.028-.36-.055-.537a.02.02 0 01.02-.023.02.02 0 00.019-.02V7a.5.5 0 01.5-.5h1.167a.5.5 0 00.5-.5V4.833a.5.5 0 00-.5-.5h-2.75a1.083 1.083 0 00-1.084 1.084v8.23c0 .368-.39.615-.749.528a3.745 3.745 0 00-.868-.106 3.802 3.802 0 00-3.8 3.798zM3.25 5.917a.5.5 0 01.5-.5h14.167a.5.5 0 01.5.5v1.166a.5.5 0 01-.5.5H3.75a.5.5 0 01-.5-.5V5.917z"/><path d="M3.25 10.25a.5.5 0 01.5-.5h14.167a.5.5 0 01.5.5v1.167a.5.5 0 01-.5.5H3.75a.5.5 0 01-.5-.5V10.25zm0 4.333a.5.5 0 01.5-.5h8.75a.5.5 0 01.5.5v1.167a.5.5 0 01-.5.5H3.75a.5.5 0 01-.5-.5v-1.167zm0 4.334a.5.5 0 01.5-.5h8.75a.5.5 0 01.5.5v1.166a.5.5 0 01-.5.5H3.75a.5.5 0 01-.5-.5v-1.166z"/></g></svg>