<svg width="26" height="26" fill="none" xmlns="http://www.w3.org/2000/svg"><path d="M14.922 19.5l1.274 1.274a1.084 1.084 0 01-1.532 1.532l-3.065-3.064a1.083 1.083 0 010-1.532l3.065-3.064a1.084 1.084 0 111.532 1.532l-1.156 1.155h2.293a4.333 4.333 0 100-8.666 1.083 1.083 0 110-2.167 6.5 6.5 0 010 13h-2.411zm-3.793-13L9.941 5.313a1.084 1.084 0 111.532-1.533l3.064 3.065a1.083 1.083 0 010 1.531l-3.064 3.064a1.082 1.082 0 01-1.85-.765c0-.288.114-.564.318-.767l1.242-1.241H8.667a4.333 4.333 0 100 8.666 1.084 1.084 0 010 2.167 6.5 6.5 0 110-13h2.462z" fill="currentColor"/></svg>