<svg width="24" height="24" fill="none" xmlns="http://www.w3.org/2000/svg"><path d="M18.764 12.43c.04-.297.06-.603.06-.93 0-.317-.02-.633-.07-.93l2.065-1.564a.473.473 0 00.122-.604l-1.954-3.285a.493.493 0 00-.259-.215.51.51 0 00-.34-.003l-2.432.95a7.236 7.236 0 00-1.648-.93l-.367-2.513a.476.476 0 00-.166-.291.5.5 0 00-.322-.115H9.547a.478.478 0 00-.478.406l-.367 2.513c-.6.238-1.15.564-1.648.93L4.623 4.9a.492.492 0 00-.6.218L2.08 8.403c-.122.207-.082.465.122.603l2.065 1.564a5.637 5.637 0 00-.092.93c0 .307.02.633.072.93L2.18 13.994a.473.473 0 00-.122.604l1.954 3.285c.122.218.376.287.6.218l2.431-.95a7.235 7.235 0 001.648.93l.366 2.513a.497.497 0 00.489.406h3.906a.47.47 0 00.478-.406l.367-2.513a7.04 7.04 0 001.648-.93l2.431.95c.224.079.478 0 .6-.218l1.953-3.286a.45.45 0 00-.122-.603l-2.044-1.564zM11.5 15.063c-2.014 0-3.662-1.604-3.662-3.563 0-1.96 1.648-3.563 3.662-3.563 2.014 0 3.662 1.604 3.662 3.563 0 1.96-1.648 3.563-3.662 3.563z" fill="currentColor"/></svg>