<svg width="24" height="24" fill="none" xmlns="http://www.w3.org/2000/svg"><path d="M9.714 2h4.572c.303 0 .594.127.808.353.214.226.335.533.335.853v6.03h1.812c.226 0 .447.07.635.202.188.133.334.321.42.542.087.22.11.462.066.696a1.228 1.228 0 01-.313.617l-5.241 5.53a1.113 1.113 0 01-.808.354 1.11 1.11 0 01-.808-.354l-5.241-5.53a1.228 1.228 0 01-.313-.617 1.268 1.268 0 01.065-.696c.087-.22.233-.41.421-.542a1.1 1.1 0 01.635-.203H8.57v-6.03c0-.319.12-.626.335-.852.214-.226.505-.353.808-.353zM5.143 19.588h13.714c.303 0 .594.127.808.354.215.226.335.532.335.852 0 .32-.12.627-.335.853a1.114 1.114 0 01-.808.353H5.143c-.303 0-.594-.127-.808-.353A1.24 1.24 0 014 20.794c0-.32.12-.626.335-.852a1.11 1.11 0 01.808-.354z" fill="currentColor"/></svg>