<svg width="26" height="24" fill="none" xmlns="http://www.w3.org/2000/svg"><path d="M5.114 17.985c2.078 0 3.734-.77 4.97-2.313 0-.109-.07-.203-.21-.285l-.801-1.542a4.335 4.335 0 01-1.621 1.766 4.333 4.333 0 01-2.338.67H3.051a.86.86 0 00-.61.263c-.183.176-.274.372-.274.589 0 .216.09.413.273.588a.86.86 0 00.611.264h2.063zM20.78 3.535c-.449-.38-.87-.38-1.263 0-.421.405-.421.811 0 1.217l1.137 1.137h-3.495c-2.05 0-3.692.77-4.928 2.313 0 .082.057.176.169.285l.8 1.542c.365-.73.905-1.32 1.621-1.766a4.333 4.333 0 012.338-.67h3.495L19.517 8.73c-.421.406-.421.812 0 1.218a.874.874 0 00.631.243c.197 0 .408-.08.632-.243l2.695-2.598c.365-.406.365-.812 0-1.218L20.78 3.534zm0 10.391c-.449-.379-.87-.379-1.263 0-.421.406-.421.812 0 1.218l1.137 1.136h-3.495a4.44 4.44 0 01-2.359-.67 4.595 4.595 0 01-1.684-1.765l-.969-1.908-1.01-1.908-.422-.771a5.817 5.817 0 00-2.274-2.456 6.326 6.326 0 00-3.327-.913H3.051a.86.86 0 00-.61.263c-.183.176-.274.373-.274.589 0 .217.09.413.273.589a.86.86 0 00.611.263h2.063c1.797 0 3.145.812 4.043 2.436l1.01 1.908.97 1.908.463.771a6.452 6.452 0 002.337 2.456 6.218 6.218 0 003.306.913h3.537l-1.179 1.137c-.421.406-.421.812 0 1.218a.874.874 0 00.632.243.975.975 0 00.631-.243l2.696-2.598c.364-.406.364-.812 0-1.218l-2.78-2.598z" fill="#54c688"/></svg>