<svg width="24" height="24" fill="none" xmlns="http://www.w3.org/2000/svg"><path d="M9.071 17.177h4.858c.322 0 .63-.128.858-.354.228-.226.356-.532.356-.852V9.94h1.926a1.22 1.22 0 001.121-.744 1.197 1.197 0 00-.263-1.314l-5.569-5.53a1.219 1.219 0 00-1.716 0l-5.57 5.53a1.203 1.203 0 00.86 2.058h1.925v6.03c0 .32.128.626.356.852.228.226.536.354.858.354zm-4.857 2.411h14.572c.322 0 .63.127.858.354a1.201 1.201 0 010 1.705 1.218 1.218 0 01-.858.353H4.214c-.322 0-.63-.127-.858-.353a1.201 1.201 0 010-1.705c.227-.227.536-.354.858-.354z" fill="#fff"/></svg>