<svg width="24" height="24" fill="none" xmlns="http://www.w3.org/2000/svg"><path d="M18.152 7.415l-.86.725a5.625 5.625 0 01-.163 7.442l.826.788a6.75 6.75 0 00.197-8.933v-.022z" fill="#54c688"/><path d="M15.014 9.62a3.375 3.375 0 01-.101 4.466l.826.765a4.5 4.5 0 00.13-5.957l-.855.726zM13 19.745a.564.564 0 01-.4-.169l-4.286-4.331H4.562A.562.562 0 014 14.682V9.057a.563.563 0 01.563-.562h3.751l4.287-4.331a.563.563 0 01.793 0 .563.563 0 01.168.393v14.625a.563.563 0 01-.562.563z" fill="#54c688"/></svg>