<svg width="26" height="26" fill="none" xmlns="http://www.w3.org/2000/svg"><path fill-rule="evenodd" clip-rule="evenodd" d="M22.513 9.175a.814.814 0 010 1.15l-3.25 3.25-3.25 3.25a.814.814 0 01-1.15-1.15l6.5-6.5a.812.812 0 011.15 0z" fill="#54c688"/><path d="M11.375 21.212a.608.608 0 01-.433-.183L6.3 16.337H2.234a.61.61 0 01-.609-.61V9.634a.61.61 0 01.61-.61h4.064l4.643-4.692a.61.61 0 01.86 0 .61.61 0 01.182.427v15.843a.61.61 0 01-.609.61z" fill="#54c688"/><path fill-rule="evenodd" clip-rule="evenodd" d="M14.862 9.175a.812.812 0 000 1.15l6.5 6.5a.815.815 0 001.327-.264.813.813 0 00-.176-.886l-6.5-6.5a.812.812 0 00-1.15 0z" fill="#54c688"/></svg>